# xmcd
#
# Track frame offsets:
#	150
#	18553
#	34831
#	51710
#	70493
#	86829
#	103920
#	122149
#	140444
#	157879
#	176182
#	194148
#	209706
#	226083
#	246869
#	262555
#	279505
#	296067
#	312200
#	330106
#
# Disc length: 4656 seconds
#
# Revision: 1
# Processed by: cddbd v1.5.1PL0 Copyright (c) Steve Scherf et al.
# Submitted via: MusicWizard 7.0.2
#
DISCID=33122e14
DTITLE=Various Artist - Touch My Soul Vol. 23 [CD 2/2)
DYEAR=2004
DGENRE=Soul
TTITLE0=Ja Rule Feat Ashanti - Always On Time
TTITLE1=Craig David - What's Your Flava
TTITLE2=Khia - My Neck My Back
TTITLE3=P. Diddy Feat Usher - I Need A Girl
TTITLE4=Tlc - Girl Talk
TTITLE5=Britney Spears Feat Pharrell Williams - Boys
TTITLE6=Angie Martinez Feat Kelis - Take You Home
TTITLE7=Joe - What If A Woman
TTITLE8=R Kelly - The World's Greatest
TTITLE9=Ll Cool J. - Luv U Better
TTITLE10=Foxy Brown - Oh Yeah
TTITLE11=Mis-Teeq - One Night Stand
TTITLE12=Ms Dynamite - Dy-Na-Mi-Tee
TTITLE13=Mario Feat Biz Markie - Just A Friend 2002
TTITLE14=Beenie Man Feat Janet - Feel It Boy
TTITLE15=Syleena Johnson - Tonight I'm Gonna Let Go
TTITLE16=Andreus - Mississippi
TTITLE17=Vikter Duplaix - Looking For Love
TTITLE18=Brandy - What About Us
TTITLE19=Monica - Don't Take It Personal
EXTD=
EXTT0=
EXTT1=
EXTT2=
EXTT3=
EXTT4=
EXTT5=
EXTT6=
EXTT7=
EXTT8=
EXTT9=
EXTT10=
EXTT11=
EXTT12=
EXTT13=
EXTT14=
EXTT15=
EXTT16=
EXTT17=
EXTT18=
EXTT19=
PLAYORDER=
